<mxfile host="app.diagrams.net" agent="Mozilla/5.0 (Windows NT 10.0; Win64; x64) AppleWebKit/537.36 (KHTML, like Gecko) Chrome/131.0.0.0 Safari/537.36" version="24.8.4">
  <diagram id="C5RBs43oDa-KdzZeNtuy" name="Page-1">
    <mxGraphModel dx="749" dy="1900" grid="1" gridSize="10" guides="1" tooltips="1" connect="1" arrows="1" fold="1" page="1" pageScale="1" pageWidth="827" pageHeight="1169" math="0" shadow="0">
      <root>
        <mxCell id="WIyWlLk6GJQsqaUBKTNV-0" />
        <mxCell id="WIyWlLk6GJQsqaUBKTNV-1" parent="WIyWlLk6GJQsqaUBKTNV-0" />
        <mxCell id="nexEUIVOstGNmPtDcWKC-44" style="edgeStyle=orthogonalEdgeStyle;rounded=0;orthogonalLoop=1;jettySize=auto;html=1;exitX=0.5;exitY=1;exitDx=0;exitDy=0;entryX=0.5;entryY=0;entryDx=0;entryDy=0;" edge="1" parent="WIyWlLk6GJQsqaUBKTNV-1" source="nexEUIVOstGNmPtDcWKC-0" target="nexEUIVOstGNmPtDcWKC-1">
          <mxGeometry relative="1" as="geometry" />
        </mxCell>
        <mxCell id="nexEUIVOstGNmPtDcWKC-0" value="Начало" style="ellipse;whiteSpace=wrap;html=1;" vertex="1" parent="WIyWlLk6GJQsqaUBKTNV-1">
          <mxGeometry x="350" y="130" width="70" height="20" as="geometry" />
        </mxCell>
        <mxCell id="nexEUIVOstGNmPtDcWKC-3" value="" style="edgeStyle=orthogonalEdgeStyle;rounded=0;orthogonalLoop=1;jettySize=auto;html=1;" edge="1" parent="WIyWlLk6GJQsqaUBKTNV-1" source="nexEUIVOstGNmPtDcWKC-1" target="nexEUIVOstGNmPtDcWKC-2">
          <mxGeometry relative="1" as="geometry" />
        </mxCell>
        <mxCell id="nexEUIVOstGNmPtDcWKC-5" value="" style="edgeStyle=orthogonalEdgeStyle;rounded=0;orthogonalLoop=1;jettySize=auto;html=1;" edge="1" parent="WIyWlLk6GJQsqaUBKTNV-1" source="nexEUIVOstGNmPtDcWKC-1" target="nexEUIVOstGNmPtDcWKC-4">
          <mxGeometry relative="1" as="geometry" />
        </mxCell>
        <mxCell id="nexEUIVOstGNmPtDcWKC-1" value="с == -1&lt;div&gt;&amp;amp;&amp;amp;&lt;/div&gt;&lt;div&gt;d == -1&lt;/div&gt;" style="rhombus;whiteSpace=wrap;html=1;" vertex="1" parent="WIyWlLk6GJQsqaUBKTNV-1">
          <mxGeometry x="345" y="180" width="80" height="80" as="geometry" />
        </mxCell>
        <mxCell id="nexEUIVOstGNmPtDcWKC-9" value="" style="edgeStyle=orthogonalEdgeStyle;rounded=0;orthogonalLoop=1;jettySize=auto;html=1;" edge="1" parent="WIyWlLk6GJQsqaUBKTNV-1" source="nexEUIVOstGNmPtDcWKC-2" target="nexEUIVOstGNmPtDcWKC-8">
          <mxGeometry relative="1" as="geometry">
            <Array as="points">
              <mxPoint x="225" y="290" />
              <mxPoint x="385" y="290" />
            </Array>
          </mxGeometry>
        </mxCell>
        <mxCell id="nexEUIVOstGNmPtDcWKC-2" value="l = 0, r = a.size() - 1" style="whiteSpace=wrap;html=1;" vertex="1" parent="WIyWlLk6GJQsqaUBKTNV-1">
          <mxGeometry x="165" y="205" width="120" height="30" as="geometry" />
        </mxCell>
        <mxCell id="nexEUIVOstGNmPtDcWKC-10" style="edgeStyle=orthogonalEdgeStyle;rounded=0;orthogonalLoop=1;jettySize=auto;html=1;exitX=0.5;exitY=1;exitDx=0;exitDy=0;entryX=0.5;entryY=0;entryDx=0;entryDy=0;" edge="1" parent="WIyWlLk6GJQsqaUBKTNV-1" source="nexEUIVOstGNmPtDcWKC-4" target="nexEUIVOstGNmPtDcWKC-8">
          <mxGeometry relative="1" as="geometry">
            <Array as="points">
              <mxPoint x="550" y="290" />
              <mxPoint x="385" y="290" />
            </Array>
          </mxGeometry>
        </mxCell>
        <mxCell id="nexEUIVOstGNmPtDcWKC-4" value="l = c, r = d" style="whiteSpace=wrap;html=1;" vertex="1" parent="WIyWlLk6GJQsqaUBKTNV-1">
          <mxGeometry x="490" y="205" width="120" height="30" as="geometry" />
        </mxCell>
        <mxCell id="nexEUIVOstGNmPtDcWKC-6" value="Да" style="text;html=1;align=center;verticalAlign=middle;whiteSpace=wrap;rounded=0;" vertex="1" parent="WIyWlLk6GJQsqaUBKTNV-1">
          <mxGeometry x="290" y="180" width="60" height="30" as="geometry" />
        </mxCell>
        <mxCell id="nexEUIVOstGNmPtDcWKC-7" value="Нет" style="text;html=1;align=center;verticalAlign=middle;whiteSpace=wrap;rounded=0;" vertex="1" parent="WIyWlLk6GJQsqaUBKTNV-1">
          <mxGeometry x="430" y="180" width="60" height="30" as="geometry" />
        </mxCell>
        <mxCell id="nexEUIVOstGNmPtDcWKC-12" style="edgeStyle=orthogonalEdgeStyle;rounded=0;orthogonalLoop=1;jettySize=auto;html=1;exitX=0.5;exitY=1;exitDx=0;exitDy=0;entryX=0.5;entryY=0;entryDx=0;entryDy=0;" edge="1" parent="WIyWlLk6GJQsqaUBKTNV-1" source="nexEUIVOstGNmPtDcWKC-8" target="nexEUIVOstGNmPtDcWKC-11">
          <mxGeometry relative="1" as="geometry" />
        </mxCell>
        <mxCell id="nexEUIVOstGNmPtDcWKC-8" value="mid = (r+l)/2&amp;nbsp;" style="whiteSpace=wrap;html=1;" vertex="1" parent="WIyWlLk6GJQsqaUBKTNV-1">
          <mxGeometry x="325" y="330" width="120" height="30" as="geometry" />
        </mxCell>
        <mxCell id="nexEUIVOstGNmPtDcWKC-17" value="" style="edgeStyle=orthogonalEdgeStyle;rounded=0;orthogonalLoop=1;jettySize=auto;html=1;" edge="1" parent="WIyWlLk6GJQsqaUBKTNV-1" source="nexEUIVOstGNmPtDcWKC-11" target="nexEUIVOstGNmPtDcWKC-16">
          <mxGeometry relative="1" as="geometry" />
        </mxCell>
        <mxCell id="nexEUIVOstGNmPtDcWKC-23" style="edgeStyle=orthogonalEdgeStyle;rounded=0;orthogonalLoop=1;jettySize=auto;html=1;exitX=1;exitY=0.5;exitDx=0;exitDy=0;entryX=0.5;entryY=0;entryDx=0;entryDy=0;" edge="1" parent="WIyWlLk6GJQsqaUBKTNV-1" source="nexEUIVOstGNmPtDcWKC-11" target="nexEUIVOstGNmPtDcWKC-19">
          <mxGeometry relative="1" as="geometry" />
        </mxCell>
        <mxCell id="nexEUIVOstGNmPtDcWKC-11" value="a[mid] &amp;gt; b" style="rhombus;whiteSpace=wrap;html=1;" vertex="1" parent="WIyWlLk6GJQsqaUBKTNV-1">
          <mxGeometry x="345" y="390" width="80" height="60" as="geometry" />
        </mxCell>
        <mxCell id="nexEUIVOstGNmPtDcWKC-13" value="Да" style="text;html=1;align=center;verticalAlign=middle;whiteSpace=wrap;rounded=0;" vertex="1" parent="WIyWlLk6GJQsqaUBKTNV-1">
          <mxGeometry x="290" y="380" width="60" height="30" as="geometry" />
        </mxCell>
        <mxCell id="nexEUIVOstGNmPtDcWKC-14" value="Нет" style="text;html=1;align=center;verticalAlign=middle;whiteSpace=wrap;rounded=0;" vertex="1" parent="WIyWlLk6GJQsqaUBKTNV-1">
          <mxGeometry x="430" y="380" width="60" height="30" as="geometry" />
        </mxCell>
        <mxCell id="nexEUIVOstGNmPtDcWKC-39" style="edgeStyle=orthogonalEdgeStyle;rounded=0;orthogonalLoop=1;jettySize=auto;html=1;exitX=0.5;exitY=1;exitDx=0;exitDy=0;entryX=0.5;entryY=0;entryDx=0;entryDy=0;" edge="1" parent="WIyWlLk6GJQsqaUBKTNV-1" source="nexEUIVOstGNmPtDcWKC-16" target="nexEUIVOstGNmPtDcWKC-31">
          <mxGeometry relative="1" as="geometry">
            <Array as="points">
              <mxPoint x="225" y="610" />
              <mxPoint x="341" y="610" />
            </Array>
          </mxGeometry>
        </mxCell>
        <mxCell id="nexEUIVOstGNmPtDcWKC-16" value="r = mid - 1" style="whiteSpace=wrap;html=1;" vertex="1" parent="WIyWlLk6GJQsqaUBKTNV-1">
          <mxGeometry x="177.5" y="405" width="95" height="30" as="geometry" />
        </mxCell>
        <mxCell id="nexEUIVOstGNmPtDcWKC-18" value="" style="edgeStyle=orthogonalEdgeStyle;rounded=0;orthogonalLoop=1;jettySize=auto;html=1;" edge="1" parent="WIyWlLk6GJQsqaUBKTNV-1" source="nexEUIVOstGNmPtDcWKC-19" target="nexEUIVOstGNmPtDcWKC-22">
          <mxGeometry relative="1" as="geometry" />
        </mxCell>
        <mxCell id="nexEUIVOstGNmPtDcWKC-29" style="edgeStyle=orthogonalEdgeStyle;rounded=0;orthogonalLoop=1;jettySize=auto;html=1;exitX=1;exitY=0.5;exitDx=0;exitDy=0;entryX=0.5;entryY=0;entryDx=0;entryDy=0;" edge="1" parent="WIyWlLk6GJQsqaUBKTNV-1" source="nexEUIVOstGNmPtDcWKC-19" target="nexEUIVOstGNmPtDcWKC-25">
          <mxGeometry relative="1" as="geometry" />
        </mxCell>
        <mxCell id="nexEUIVOstGNmPtDcWKC-19" value="a[mid] &amp;lt; b" style="rhombus;whiteSpace=wrap;html=1;" vertex="1" parent="WIyWlLk6GJQsqaUBKTNV-1">
          <mxGeometry x="471.25" y="480" width="80" height="60" as="geometry" />
        </mxCell>
        <mxCell id="nexEUIVOstGNmPtDcWKC-20" value="Да" style="text;html=1;align=center;verticalAlign=middle;whiteSpace=wrap;rounded=0;" vertex="1" parent="WIyWlLk6GJQsqaUBKTNV-1">
          <mxGeometry x="416.25" y="470" width="60" height="30" as="geometry" />
        </mxCell>
        <mxCell id="nexEUIVOstGNmPtDcWKC-21" value="Нет" style="text;html=1;align=center;verticalAlign=middle;whiteSpace=wrap;rounded=0;" vertex="1" parent="WIyWlLk6GJQsqaUBKTNV-1">
          <mxGeometry x="556.25" y="470" width="60" height="30" as="geometry" />
        </mxCell>
        <mxCell id="nexEUIVOstGNmPtDcWKC-40" style="edgeStyle=orthogonalEdgeStyle;rounded=0;orthogonalLoop=1;jettySize=auto;html=1;exitX=0.5;exitY=1;exitDx=0;exitDy=0;entryX=0.5;entryY=0;entryDx=0;entryDy=0;" edge="1" parent="WIyWlLk6GJQsqaUBKTNV-1" source="nexEUIVOstGNmPtDcWKC-22" target="nexEUIVOstGNmPtDcWKC-31">
          <mxGeometry relative="1" as="geometry">
            <Array as="points">
              <mxPoint x="351" y="610" />
              <mxPoint x="341" y="610" />
            </Array>
          </mxGeometry>
        </mxCell>
        <mxCell id="nexEUIVOstGNmPtDcWKC-22" value="r = mid + 1" style="whiteSpace=wrap;html=1;" vertex="1" parent="WIyWlLk6GJQsqaUBKTNV-1">
          <mxGeometry x="303.75" y="495" width="95" height="30" as="geometry" />
        </mxCell>
        <mxCell id="nexEUIVOstGNmPtDcWKC-24" value="" style="edgeStyle=orthogonalEdgeStyle;rounded=0;orthogonalLoop=1;jettySize=auto;html=1;" edge="1" parent="WIyWlLk6GJQsqaUBKTNV-1" source="nexEUIVOstGNmPtDcWKC-25" target="nexEUIVOstGNmPtDcWKC-28">
          <mxGeometry relative="1" as="geometry" />
        </mxCell>
        <mxCell id="nexEUIVOstGNmPtDcWKC-42" style="edgeStyle=orthogonalEdgeStyle;rounded=0;orthogonalLoop=1;jettySize=auto;html=1;exitX=0;exitY=0.5;exitDx=0;exitDy=0;entryX=0.5;entryY=0;entryDx=0;entryDy=0;" edge="1" parent="WIyWlLk6GJQsqaUBKTNV-1" source="nexEUIVOstGNmPtDcWKC-25" target="nexEUIVOstGNmPtDcWKC-31">
          <mxGeometry relative="1" as="geometry" />
        </mxCell>
        <mxCell id="nexEUIVOstGNmPtDcWKC-25" value="a[mid] == b" style="rhombus;whiteSpace=wrap;html=1;" vertex="1" parent="WIyWlLk6GJQsqaUBKTNV-1">
          <mxGeometry x="566.25" y="580" width="80" height="60" as="geometry" />
        </mxCell>
        <mxCell id="nexEUIVOstGNmPtDcWKC-26" value="Да" style="text;html=1;align=center;verticalAlign=middle;whiteSpace=wrap;rounded=0;" vertex="1" parent="WIyWlLk6GJQsqaUBKTNV-1">
          <mxGeometry x="593.75" y="640" width="60" height="30" as="geometry" />
        </mxCell>
        <mxCell id="nexEUIVOstGNmPtDcWKC-27" value="Нет" style="text;html=1;align=center;verticalAlign=middle;whiteSpace=wrap;rounded=0;" vertex="1" parent="WIyWlLk6GJQsqaUBKTNV-1">
          <mxGeometry x="533.75" y="570" width="60" height="30" as="geometry" />
        </mxCell>
        <mxCell id="nexEUIVOstGNmPtDcWKC-49" style="edgeStyle=orthogonalEdgeStyle;rounded=0;orthogonalLoop=1;jettySize=auto;html=1;exitX=0.5;exitY=1;exitDx=0;exitDy=0;entryX=0.5;entryY=0;entryDx=0;entryDy=0;" edge="1" parent="WIyWlLk6GJQsqaUBKTNV-1" source="nexEUIVOstGNmPtDcWKC-28" target="nexEUIVOstGNmPtDcWKC-45">
          <mxGeometry relative="1" as="geometry">
            <Array as="points">
              <mxPoint x="606" y="830" />
              <mxPoint x="341" y="830" />
            </Array>
          </mxGeometry>
        </mxCell>
        <mxCell id="nexEUIVOstGNmPtDcWKC-28" value="return mid" style="whiteSpace=wrap;html=1;" vertex="1" parent="WIyWlLk6GJQsqaUBKTNV-1">
          <mxGeometry x="558.75" y="690" width="95" height="30" as="geometry" />
        </mxCell>
        <mxCell id="nexEUIVOstGNmPtDcWKC-34" style="edgeStyle=orthogonalEdgeStyle;rounded=0;orthogonalLoop=1;jettySize=auto;html=1;exitX=0;exitY=0.5;exitDx=0;exitDy=0;entryX=1;entryY=0.5;entryDx=0;entryDy=0;" edge="1" parent="WIyWlLk6GJQsqaUBKTNV-1" source="nexEUIVOstGNmPtDcWKC-31" target="nexEUIVOstGNmPtDcWKC-32">
          <mxGeometry relative="1" as="geometry" />
        </mxCell>
        <mxCell id="nexEUIVOstGNmPtDcWKC-38" style="edgeStyle=orthogonalEdgeStyle;rounded=0;orthogonalLoop=1;jettySize=auto;html=1;exitX=1;exitY=0.5;exitDx=0;exitDy=0;entryX=0;entryY=0.5;entryDx=0;entryDy=0;" edge="1" parent="WIyWlLk6GJQsqaUBKTNV-1" source="nexEUIVOstGNmPtDcWKC-31" target="nexEUIVOstGNmPtDcWKC-37">
          <mxGeometry relative="1" as="geometry" />
        </mxCell>
        <mxCell id="nexEUIVOstGNmPtDcWKC-31" value="l &amp;gt; r" style="rhombus;whiteSpace=wrap;html=1;" vertex="1" parent="WIyWlLk6GJQsqaUBKTNV-1">
          <mxGeometry x="301.25" y="750" width="80" height="40" as="geometry" />
        </mxCell>
        <mxCell id="nexEUIVOstGNmPtDcWKC-46" style="edgeStyle=orthogonalEdgeStyle;rounded=0;orthogonalLoop=1;jettySize=auto;html=1;exitX=0.5;exitY=1;exitDx=0;exitDy=0;entryX=0.5;entryY=0;entryDx=0;entryDy=0;" edge="1" parent="WIyWlLk6GJQsqaUBKTNV-1" source="nexEUIVOstGNmPtDcWKC-32" target="nexEUIVOstGNmPtDcWKC-45">
          <mxGeometry relative="1" as="geometry">
            <Array as="points">
              <mxPoint x="236" y="830" />
              <mxPoint x="341" y="830" />
            </Array>
          </mxGeometry>
        </mxCell>
        <mxCell id="nexEUIVOstGNmPtDcWKC-32" value="return -1" style="rounded=0;whiteSpace=wrap;html=1;" vertex="1" parent="WIyWlLk6GJQsqaUBKTNV-1">
          <mxGeometry x="196.25" y="755" width="80" height="30" as="geometry" />
        </mxCell>
        <mxCell id="nexEUIVOstGNmPtDcWKC-35" value="Да" style="text;html=1;align=center;verticalAlign=middle;whiteSpace=wrap;rounded=0;" vertex="1" parent="WIyWlLk6GJQsqaUBKTNV-1">
          <mxGeometry x="272.5" y="730" width="60" height="30" as="geometry" />
        </mxCell>
        <mxCell id="nexEUIVOstGNmPtDcWKC-36" value="Нет" style="text;html=1;align=center;verticalAlign=middle;whiteSpace=wrap;rounded=0;" vertex="1" parent="WIyWlLk6GJQsqaUBKTNV-1">
          <mxGeometry x="355" y="730" width="60" height="30" as="geometry" />
        </mxCell>
        <mxCell id="nexEUIVOstGNmPtDcWKC-47" style="edgeStyle=orthogonalEdgeStyle;rounded=0;orthogonalLoop=1;jettySize=auto;html=1;exitX=0.5;exitY=1;exitDx=0;exitDy=0;entryX=0.5;entryY=0;entryDx=0;entryDy=0;" edge="1" parent="WIyWlLk6GJQsqaUBKTNV-1" source="nexEUIVOstGNmPtDcWKC-37" target="nexEUIVOstGNmPtDcWKC-45">
          <mxGeometry relative="1" as="geometry">
            <Array as="points">
              <mxPoint x="486" y="830" />
              <mxPoint x="341" y="830" />
            </Array>
          </mxGeometry>
        </mxCell>
        <mxCell id="nexEUIVOstGNmPtDcWKC-37" value="return bin_find(a, b, l, r)" style="shape=process;whiteSpace=wrap;html=1;backgroundOutline=1;" vertex="1" parent="WIyWlLk6GJQsqaUBKTNV-1">
          <mxGeometry x="402.25" y="755" width="167.75" height="30" as="geometry" />
        </mxCell>
        <mxCell id="nexEUIVOstGNmPtDcWKC-45" value="Конец" style="ellipse;whiteSpace=wrap;html=1;" vertex="1" parent="WIyWlLk6GJQsqaUBKTNV-1">
          <mxGeometry x="306.25" y="890" width="70" height="20" as="geometry" />
        </mxCell>
      </root>
    </mxGraphModel>
  </diagram>
</mxfile>
